@startuml
entity Block {
  +id
  +chainId
  +height
  timestamp
  ..relations..
  transactions
  messages
  events
}

entity Transaction {
  +id
  gasUsed
  gasWanted
  fees
  memo
  status
  log
  +timeoutHeight
  +signerAddress
  ..relations..
  events
  messages
  block

}

Transaction }|--|| Block
Transaction::block ..|| Block

entity Message {
  +id
  +typeUrl
  json
  ..relations..
  transaction
  block
}

Transaction ||--|{ Message
Transaction::messages ...|{ Message

Message::block ..|| Block
Message::transaction ..|| Transaction

entity Event {
  +id
  +type
  attributes
  log
  ..relations..
  transaction
  block

}

object EventAttribute {
  key
  value
}

Transaction::events .|{ Event
Event::attributes -|{ EventAttribute

Event }|--|| Transaction
Event::transaction ..|| Transaction
Event::block ..|| Block
@enduml
